# xmcd
#
# Track frame offsets:
#	150
#	12442
#	22845
#	35920
#	49102
#	60237
#	72460
#	84002
#	96005
#	108265
#	119705
#	132745
#	145710
#	156505
#	168072
#	180282
#	193067
#	204562
#	214925
#	228082
#	241407
#	255855
#	267182
#	279565
#	291287
#
# Disc length: 4023 seconds
#
# Revision: 0
# Processed by: cddbd v1.4PL0 Copyright (c) Steve Scherf et al.
# Submitted via: dBpowerAMP V4.0
#
DISCID=610fb519
DTITLE=Bob Wills - Boot Heel Drag
DYEAR=1900
DGENRE=Country
TTITLE0=I'll Have Somebody Else
TTITLE1=Sally Goodin'
TTITLE2=Blues For Dixie
TTITLE3=The Warm Red Wine
TTITLE4=Playboy Chimes
TTITLE5=Ida Red Likes The Boogie
TTITLE6=Dog House Blues
TTITLE7=Papa's Jumpin
TTITLE8=Keeper Of My Heart
TTITLE9=Texas Drummer Boy
TTITLE10=Pastime Blues
TTITLE11=Still Water Runs The Deepest
TTITLE12=Thorn In My Heart
TTITLE13=Three Little Kittens
TTITLE14=Silver Lake Blues
TTITLE15=Cotton Patch Blues
TTITLE16=I Aint Got Nobody
TTITLE17=I Betcha My Heart I Love You
TTITLE18=Rock-a-Bye Baby Blues
TTITLE19=Bob wills Squaredance #2
TTITLE20=Trouble,Trouble Blues
TTITLE21=I Married The Rose Of San Antone
TTITLE22=Boot Heel Drag
TTITLE23=The End Of The Line
TTITLE24=Twinkle Star
EXTD=
EXTT0=
EXTT1=
EXTT2=
EXTT3=
EXTT4=
EXTT5=
EXTT6=
EXTT7=
EXTT8=
EXTT9=
EXTT10=
EXTT11=
EXTT12=
EXTT13=
EXTT14=
EXTT15=
EXTT16=
EXTT17=
EXTT18=
EXTT19=
EXTT20=
EXTT21=
EXTT22=
EXTT23=
EXTT24=
PLAYORDER=
